<svg width="19" height="19" viewBox="0 0 19 19" fill="none" xmlns="http://www.w3.org/2000/svg">
<path d="M17.4167 9.49984C17.2068 9.49984 17.0054 9.58324 16.857 9.73171C16.7085 9.88018 16.6251 10.0815 16.6251 10.2915V15.8332C16.6251 16.2706 16.2708 16.6248 15.8334 16.6248H3.16675C2.72935 16.6248 2.37508 16.2706 2.37508 15.8332V3.1665C2.37508 2.72911 2.72935 2.37484 3.16675 2.37484H8.70841C8.91838 2.37484 9.11974 2.29143 9.26821 2.14296C9.41667 1.9945 9.50008 1.79313 9.50008 1.58317C9.50008 1.37321 9.41667 1.17184 9.26821 1.02338C9.11974 0.874911 8.91838 0.791504 8.70841 0.791504H3.16675C1.85515 0.791504 0.791748 1.85491 0.791748 3.1665V15.8332C0.791748 17.1448 1.85515 18.2082 3.16675 18.2082H15.8334C17.145 18.2082 18.2084 17.1448 18.2084 15.8332V10.2915C18.2084 10.0815 18.125 9.88018 17.9765 9.73171C17.8281 9.58324 17.6267 9.49984 17.4167 9.49984Z" fill="black"/>
<path d="M18.2076 1.57486C18.2073 1.52555 18.2023 1.47639 18.1928 1.428C18.1883 1.40584 18.1799 1.38525 18.1736 1.36368C18.1657 1.33558 18.159 1.30727 18.1477 1.27996C18.1378 1.25582 18.1239 1.23424 18.1117 1.21148C18.0994 1.18872 18.0893 1.16517 18.0746 1.1434C18.0505 1.1084 18.0235 1.07538 17.9941 1.04464C17.9878 1.03771 17.9832 1.0298 17.9765 1.02326C17.9703 1.01713 17.9632 1.01317 17.9567 1.00723C17.9254 0.97707 17.8917 0.949532 17.856 0.9249C17.8346 0.91065 17.8112 0.900556 17.7889 0.888483C17.7659 0.876212 17.7437 0.86216 17.7196 0.852066C17.6921 0.840587 17.6636 0.834056 17.6351 0.825941C17.6139 0.819806 17.5935 0.811493 17.5715 0.807139C17.5205 0.796787 17.4686 0.791549 17.4166 0.791504H12.6668C12.4568 0.791504 12.2554 0.874911 12.107 1.02338C11.9585 1.17184 11.8751 1.37321 11.8751 1.58317C11.8751 1.79313 11.9585 1.9945 12.107 2.14296C12.2554 2.29143 12.4568 2.37484 12.6668 2.37484H15.5055L9.01976 8.86057C8.94415 8.9336 8.88384 9.02095 8.84235 9.11754C8.80086 9.21412 8.77902 9.31801 8.77811 9.42312C8.77719 9.52824 8.79722 9.63249 8.83703 9.72978C8.87683 9.82707 8.93562 9.91546 9.00995 9.9898C9.08428 10.0641 9.17267 10.1229 9.26997 10.1627C9.36726 10.2025 9.47151 10.2226 9.57662 10.2216C9.68174 10.2207 9.78562 10.1989 9.88221 10.1574C9.97879 10.1159 10.0662 10.0556 10.1392 9.97998L16.6251 3.49425V6.33317C16.6251 6.54313 16.7085 6.7445 16.857 6.89296C17.0054 7.04143 17.2068 7.12484 17.4168 7.12484C17.6267 7.12484 17.8281 7.04143 17.9766 6.89296C18.125 6.7445 18.2084 6.54313 18.2084 6.33317V1.58317C18.2084 1.5804 18.2076 1.57783 18.2076 1.57486Z" fill="black"/>
</svg>
