<svg width="25" height="45" viewBox="0 0 25 45" fill="none" xmlns="http://www.w3.org/2000/svg">
<path d="M20.5957 0H3.60425C1.59617 0 0 1.64766 0 3.60425V41.1399C0 43.148 1.64766 44.7442 3.60425 44.7442H20.5957C22.6038 44.7442 24.2 43.0965 24.2 41.1399V3.65574C24.2 1.64766 22.6038 0 20.5957 0ZM8.1353 2.8834H16.1161C16.4766 2.8834 16.734 3.14084 16.734 3.50127C16.734 3.86169 16.4766 4.11914 16.1161 4.11914H8.1353C7.77488 4.11914 7.51743 3.86169 7.51743 3.50127C7.51743 3.14084 7.77488 2.8834 8.1353 2.8834ZM12.1 43.251C10.9157 43.251 9.93743 42.2727 9.93743 41.0884C9.93743 39.9042 10.9157 38.9259 12.1 38.9259C13.2842 38.9259 14.2625 39.9042 14.2625 41.0884C14.2625 42.2727 13.2842 43.251 12.1 43.251ZM22.4493 37.3812H1.69915V6.64211H22.4493V37.3812Z" fill="#999999"/>
</svg>
