<svg width="45" height="42" viewBox="0 0 45 42" fill="none" xmlns="http://www.w3.org/2000/svg">
<path fill-rule="evenodd" clip-rule="evenodd" d="M2.07529 0H42.8289C43.9898 0 44.9982 0.88784 44.9987 2.01777V34.1186C44.9987 35.2475 43.9898 36.1343 42.8294 36.1343H2.07529C0.91435 36.1343 0 35.2475 0 34.1186V2.01777C0 0.88784 0.91435 0 2.07529 0ZM40.565 28.798C41.4144 28.798 42.0746 28.0632 42.0746 27.2394V3.75994C42.0746 2.93462 41.4139 2.29338 40.565 2.29338H4.33966C3.48934 2.29338 2.82958 2.93462 2.82958 3.75994V27.2394C2.82958 28.0632 3.48984 28.798 4.33966 28.798H40.565ZM22.5 34C23.3284 34 24 33.3284 24 32.5C24 31.6716 23.3284 31 22.5 31C21.6716 31 21 31.6716 21 32.5C21 33.3284 21.6716 34 22.5 34Z" fill="#999999"/>
<path d="M27.484 35.4649C27.3325 35.1092 26.9528 34.8806 26.5577 34.7931C26.4941 34.7596 26.3886 34.7196 26.3066 34.7056H26.2215H18.5691C18.4941 34.7056 18.4591 34.7646 18.401 34.7931C17.9904 34.8671 17.5492 35.0917 17.3922 35.4649L17.0373 41.1845C17 41.5 17.0768 41.9418 17.5414 41.9418H21.7648H23.1939H27.4168C27.8819 41.9418 28 41.5 27.922 41.1845L27.484 35.4649Z" fill="#999999"/>
</svg>
